<?xml version="1.0" encoding="UTF-8"?>
<svg version="1.1" xmlns="http://www.w3.org/2000/svg" width="803" height="527">
<path d="M0 0 C264.99 0 529.98 0 803 0 C803 173.91 803 347.82 803 527 C538.01 527 273.02 527 0 527 C0 353.09 0 179.18 0 0 Z " fill="#1a1a1a" transform="translate(0,0)"/>
<path d="M0 0 C4.48746533 2.44150525 7.13648956 4.99416056 8.61767578 9.99316406 C9.80181227 19.79449812 6.79171367 28.78662812 4.05517578 38.05566406 C3.59223031 39.6636838 3.13090417 41.27217056 2.67114258 42.88110352 C1.75239745 46.09407852 0.82804295 49.30535262 -0.10009766 52.515625 C-1.83692264 58.54919421 -3.45937698 64.6123258 -5.06982422 70.68066406 C-7.57810071 80.07351486 -10.18080165 89.43677857 -12.82397461 98.79248047 C-14.81044155 105.85783599 -16.68409582 112.94660542 -18.50732422 120.05566406 C-20.5036285 127.83532112 -22.69264838 135.50181093 -25.20654297 143.12988281 C-26.85882697 148.34717599 -28.07895874 153.6806785 -29.38232422 158.99316406 C-30.51318249 163.52944442 -31.65441029 168.06291657 -32.80688477 172.59375 C-33.14958954 173.9463002 -33.48974898 175.2994978 -33.82739258 176.65332031 C-39.05907824 197.61034767 -39.05907824 197.61034767 -43.81982422 202.49316406 C-48.83082336 205.42643185 -52.48947534 206.60276912 -58.38232422 205.99316406 C-68.96177941 201.72426109 -73.31831555 189.72827417 -78.50732422 180.24316406 C-79.8293852 177.84353368 -81.15473253 175.445723 -82.47998047 173.04785156 C-82.80918991 172.45142853 -83.13839935 171.85500549 -83.47758484 171.24050903 C-86.59588913 165.59497144 -89.75525498 159.97370154 -92.94482422 154.36816406 C-93.40840332 153.54735352 -93.87198242 152.72654297 -94.34960938 151.88085938 C-95.23298853 150.33278776 -96.13040555 148.7926228 -97.04321289 147.26171875 C-97.96975383 145.69208914 -98.85295935 144.09636737 -99.69995117 142.48242188 C-102.30571272 137.86794732 -102.30571272 137.86794732 -106.61547852 135.02197266 C-109.2413097 134.46420563 -111.76755328 134.18270325 -114.44482422 133.99316406 C-115.37786377 133.89398682 -116.31090332 133.79480957 -117.2722168 133.69262695 C-119.9739245 133.4155587 -122.67400129 133.19391576 -125.38232422 132.99316406 C-126.67396484 132.88875 -127.96560547 132.78433594 -129.29638672 132.67675781 C-131.29594604 132.52643295 -133.29732186 132.39631868 -135.30029297 132.30175781 C-137.96380036 132.03506949 -140.44625225 131.59983062 -143.06201172 131.05566406 C-148.45348758 129.93569078 -153.85869622 129.23735032 -159.31982422 128.55566406 C-180.27409881 125.74728702 -180.27409881 125.74728702 -185.00732422 120.43066406 C-187.79397091 116.6856042 -188.64431922 114.06876284 -188.88232422 109.36816406 C-188.99060547 107.86382812 -188.99060547 107.86382812 -189.10107422 106.32910156 C-187.84800998 100.51324904 -183.97048774 96.75733625 -179.13085938 93.45849609 C-176.60613277 92.00794644 -174.04645606 90.67563168 -171.44482422 89.36816406 C-169.47170904 88.33506213 -167.50041557 87.29847499 -165.53076172 86.25878906 C-164.51594727 85.72576172 -163.50113281 85.19273437 -162.45556641 84.64355469 C-157.41454953 81.93643091 -152.49570135 79.02804358 -147.56982422 76.11816406 C-139.3951315 71.30811787 -131.17097517 66.60406069 -122.88232422 61.99316406 C-114.66024037 57.41760664 -106.49650741 52.75745511 -98.38232422 47.99316406 C-89.23319133 42.62119613 -80.00829291 37.40239881 -70.73779297 32.24316406 C-63.56872566 28.24348516 -56.46289123 24.1472051 -49.38232422 19.99316406 C-47.41121682 18.84430308 -45.4398614 17.69586752 -43.46826172 16.54785156 C-40.3251547 14.71736346 -37.18858029 12.87785251 -34.06298828 11.01757812 C-30.7223348 9.03126962 -27.36646304 7.07300732 -24.00732422 5.11816406 C-22.48365234 4.19777344 -22.48365234 4.19777344 -20.92919922 3.25878906 C-14.10672241 -0.66820687 -7.65357547 -3.23461214 0 0 Z " fill="#555868" transform="translate(492.38232421875,108.0068359375)"/>
<path d="M0 0 C4.48746533 2.44150525 7.13648956 4.99416056 8.61767578 9.99316406 C9.80181227 19.79449812 6.79171367 28.78662812 4.05517578 38.05566406 C3.59223031 39.6636838 3.13090417 41.27217056 2.67114258 42.88110352 C1.75239745 46.09407852 0.82804295 49.30535262 -0.10009766 52.515625 C-1.83692264 58.54919421 -3.45937698 64.6123258 -5.06982422 70.68066406 C-7.57810071 80.07351486 -10.18080165 89.43677857 -12.82397461 98.79248047 C-14.81044155 105.85783599 -16.68409582 112.94660542 -18.50732422 120.05566406 C-20.5036285 127.83532112 -22.69264838 135.50181093 -25.20654297 143.12988281 C-26.85882697 148.34717599 -28.07895874 153.6806785 -29.38232422 158.99316406 C-30.51318249 163.52944442 -31.65441029 168.06291657 -32.80688477 172.59375 C-33.14958954 173.9463002 -33.48974898 175.2994978 -33.82739258 176.65332031 C-39.05907824 197.61034767 -39.05907824 197.61034767 -43.81982422 202.49316406 C-48.83082336 205.42643185 -52.48947534 206.60276912 -58.38232422 205.99316406 C-68.96177941 201.72426109 -73.31831555 189.72827417 -78.50732422 180.24316406 C-79.8293852 177.84353368 -81.15473253 175.445723 -82.47998047 173.04785156 C-82.80918991 172.45142853 -83.13839935 171.85500549 -83.47758484 171.24050903 C-86.59588913 165.59497144 -89.75525498 159.97370154 -92.94482422 154.36816406 C-93.40840332 153.54735352 -93.87198242 152.72654297 -94.34960938 151.88085938 C-95.23298853 150.33278776 -96.13040555 148.7926228 -97.04321289 147.26171875 C-97.96975383 145.69208914 -98.85295935 144.09636737 -99.69995117 142.48242188 C-102.30571272 137.86794732 -102.30571272 137.86794732 -106.61547852 135.02197266 C-109.2413097 134.46420563 -111.76755328 134.18270325 -114.44482422 133.99316406 C-115.37786377 133.89398682 -116.31090332 133.79480957 -117.2722168 133.69262695 C-119.9739245 133.4155587 -122.67400129 133.19391576 -125.38232422 132.99316406 C-126.67396484 132.88875 -127.96560547 132.78433594 -129.29638672 132.67675781 C-131.29594604 132.52643295 -133.29732186 132.39631868 -135.30029297 132.30175781 C-137.96380036 132.03506949 -140.44625225 131.59983062 -143.06201172 131.05566406 C-148.45348758 129.93569078 -153.85869622 129.23735032 -159.31982422 128.55566406 C-180.27409881 125.74728702 -180.27409881 125.74728702 -185.00732422 120.43066406 C-187.79397091 116.6856042 -188.64431922 114.06876284 -188.88232422 109.36816406 C-188.99060547 107.86382812 -188.99060547 107.86382812 -189.10107422 106.32910156 C-187.84800998 100.51324904 -183.97048774 96.75733625 -179.13085938 93.45849609 C-176.60613277 92.00794644 -174.04645606 90.67563168 -171.44482422 89.36816406 C-169.47170904 88.33506213 -167.50041557 87.29847499 -165.53076172 86.25878906 C-164.51594727 85.72576172 -163.50113281 85.19273437 -162.45556641 84.64355469 C-157.41454953 81.93643091 -152.49570135 79.02804358 -147.56982422 76.11816406 C-139.3951315 71.30811787 -131.17097517 66.60406069 -122.88232422 61.99316406 C-114.66024037 57.41760664 -106.49650741 52.75745511 -98.38232422 47.99316406 C-89.23319133 42.62119613 -80.00829291 37.40239881 -70.73779297 32.24316406 C-63.56872566 28.24348516 -56.46289123 24.1472051 -49.38232422 19.99316406 C-47.41121682 18.84430308 -45.4398614 17.69586752 -43.46826172 16.54785156 C-40.3251547 14.71736346 -37.18858029 12.87785251 -34.06298828 11.01757812 C-30.7223348 9.03126962 -27.36646304 7.07300732 -24.00732422 5.11816406 C-22.48365234 4.19777344 -22.48365234 4.19777344 -20.92919922 3.25878906 C-14.10672241 -0.66820687 -7.65357547 -3.23461214 0 0 Z M-14.48779297 14.70410156 C-15.46167969 15.28417969 -16.43556641 15.86425781 -17.43896484 16.46191406 C-18.47214844 17.09097656 -19.50533203 17.72003906 -20.56982422 18.36816406 C-22.74990868 19.66916114 -24.93090503 20.96863134 -27.11279297 22.26660156 C-28.1844873 22.90694336 -29.25618164 23.54728516 -30.36035156 24.20703125 C-34.32474415 26.55018008 -38.34167975 28.78500292 -42.38232422 30.99316406 C-49.30503965 34.79569362 -56.13301848 38.7456332 -62.94482422 42.74316406 C-72.31005239 48.23645361 -81.74414322 53.59166905 -91.22729492 58.87841797 C-100.47079496 64.03290434 -109.66332049 69.27278527 -118.84375 74.53857422 C-121.37445191 75.98865327 -123.90727521 77.43494903 -126.44091797 78.87988281 C-138.56617166 85.79569965 -150.66222449 92.76128692 -162.74951172 99.74316406 C-166.95406628 102.17116584 -171.16383288 104.58946529 -175.38232422 106.99316406 C-175.38232422 108.97316406 -175.38232422 110.95316406 -175.38232422 112.99316406 C-168.29328161 114.96721677 -161.16951887 115.9628523 -153.88232422 116.93066406 C-151.98389771 117.18843628 -151.98389771 117.18843628 -150.04711914 117.45141602 C-140.58152605 118.72734978 -131.10663666 119.92756125 -121.62060547 121.04174805 C-120.69248047 121.15333252 -119.76435547 121.26491699 -118.80810547 121.37988281 C-117.59247925 121.5223645 -117.59247925 121.5223645 -116.35229492 121.66772461 C-114.38232422 121.99316406 -114.38232422 121.99316406 -112.38232422 122.99316406 C-109.10912098 123.47840983 -105.83010387 123.89016659 -102.54638672 124.29785156 C-99.32059218 125.00672987 -97.86866207 125.91553928 -95.38232422 127.99316406 C-94.72232422 127.99316406 -94.06232422 127.99316406 -93.38232422 127.99316406 C-93.10340332 128.72462646 -92.82448242 129.45608887 -92.53710938 130.2097168 C-91.47081674 132.77986528 -90.28120389 135.11296595 -88.90576172 137.52832031 C-88.40761963 138.40665527 -87.90947754 139.28499023 -87.39624023 140.18994141 C-86.85539795 141.13562988 -86.31455566 142.08131836 -85.75732422 143.05566406 C-85.19263428 144.04775879 -84.62794434 145.03985352 -84.04614258 146.06201172 C-82.8179119 148.21870152 -81.58827829 150.37459282 -80.35742188 152.52978516 C-78.6470478 155.52896521 -76.94270939 158.53140912 -75.24176025 161.53593445 C-73.82537756 164.03677441 -72.40593287 166.53586819 -70.98590088 169.03463745 C-70.30026591 170.24216616 -69.61562895 171.45026216 -68.93206787 172.65896606 C-66.78262731 176.45743118 -64.59809458 180.23303178 -62.38232422 183.99316406 C-61.84462402 184.92290039 -61.30692383 185.85263672 -60.75292969 186.81054688 C-60.24777832 187.63651367 -59.74262695 188.46248047 -59.22216797 189.31347656 C-58.57622681 190.38879639 -58.57622681 190.38879639 -57.91723633 191.48583984 C-56.41998861 193.27630233 -56.41998861 193.27630233 -53.70483398 193.22314453 C-52.55519165 193.1093042 -52.55519165 193.1093042 -51.38232422 192.99316406 C-51.20056641 192.44789063 -51.01880859 191.90261719 -50.83154297 191.34082031 C-50.58017578 190.58671875 -50.32880859 189.83261719 -50.06982422 189.05566406 C-49.79396484 188.22292969 -49.51810547 187.39019531 -49.23388672 186.53222656 C-48.72061902 185.00184123 -48.19755627 183.47462176 -47.65576172 181.95410156 C-45.77920339 176.61312787 -44.41045376 171.19592626 -43.07177734 165.69750977 C-41.66047817 159.9650906 -40.08012479 154.29041862 -38.44482422 148.61816406 C-38.18797852 147.72653564 -37.93113281 146.83490723 -37.66650391 145.91625977 C-37.15179026 144.13110982 -36.6368192 142.34603407 -36.12158203 140.56103516 C-33.2362369 130.53855824 -30.48295254 120.50001345 -28.00732422 110.36816406 C-25.88941782 101.70841255 -23.42722062 93.17126056 -20.89624023 84.62426758 C-18.93593325 77.97587551 -17.17693686 71.32285554 -15.54248047 64.58691406 C-13.94142831 58.12848355 -12.14941789 51.72017246 -10.38232422 45.30566406 C-10.04982666 44.09370361 -9.7173291 42.88174316 -9.37475586 41.63305664 C-7.42950241 34.59808223 -5.34612407 27.64343048 -3.01904297 20.72436523 C-2.17861036 17.11933473 -2.7660526 15.2257073 -4.38232422 11.99316406 C-8.6147357 11.66435027 -10.88106524 12.52319567 -14.48779297 14.70410156 Z " fill="#A794D6" transform="translate(492.38232421875,108.0068359375)"/>
<path d="M0 0 C3.14004987 2.71211387 5.13226944 5.30999619 7.20703125 8.90625 C7.20703125 9.89625 7.20703125 10.88625 7.20703125 11.90625 C1.58203125 14.90625 1.58203125 14.90625 -1.79296875 14.90625 C-3.1171875 13.296875 -3.1171875 13.296875 -4.48046875 11.15625 C-7.69357456 6.75772651 -10.43084687 4.21992855 -15.79296875 2.90625 C-23.32866309 2.18817179 -32.25280291 1.41643363 -38.79296875 5.90625 C-44.46133575 11.01122961 -48.3566682 16.43962315 -49.10546875 24.10546875 C-49.42352495 33.29928065 -47.86630315 40.03130578 -42.98046875 47.78125 C-37.43418974 53.1690639 -31.6119489 54.87634935 -24.04296875 55.15625 C-17.68056671 55.03353305 -12.21120271 54.40741978 -7.62890625 49.66796875 C-6.27729 48.04046079 -4.96870261 46.37583704 -3.71484375 44.671875 C-3.080625 44.08921875 -2.44640625 43.5065625 -1.79296875 42.90625 C1.82015651 43.14344754 4.89381752 44.48630126 8.20703125 45.90625 C3.69431157 54.75118057 -1.78203775 60.44465934 -11.21484375 64.0234375 C-21.77457661 66.62878644 -34.21428568 66.41555791 -43.79296875 60.90625 C-51.88365872 55.54681206 -56.94017719 47.90568479 -59.42578125 38.515625 C-61.13763897 26.35050842 -60.28009952 15.93951837 -53.21875 5.6015625 C-47.79452269 -1.09969735 -40.86343549 -6.39009534 -32.23828125 -7.84765625 C-19.7725405 -9.10219565 -10.17554767 -7.56355669 0 0 Z " fill="#A794D7" transform="translate(214.79296875,351.09375)"/>
<path d="M0 0 C5.35138413 3.32685606 8.24014718 9.03487327 10.75 14.625 C11.375 17.5625 11.375 17.5625 11.375 25.5625 C-1.495 25.5625 -14.365 25.5625 -27.625 25.5625 C-25.13666787 35.30525894 -25.13666787 35.30525894 -18.8125 40.8125 C-13.97206595 42.47207739 -9.92305215 41.93603906 -5.375 39.8125 C-2.35267202 38.17247706 -0.36570517 36.60873405 1.375 33.5625 C7.125 34.4375 7.125 34.4375 9.375 35.5625 C7.4577497 41.15448005 4.95546011 44.43794185 0.125 47.875 C-6.70251553 51.01925057 -16.0332384 50.72767674 -23.2265625 48.90234375 C-29.35553581 46.16915295 -33.75751872 40.98371454 -36.5 34.9375 C-38.81589057 27.79568176 -38.82430413 19.57210588 -35.9375 12.625 C-32.90506334 6.85597416 -29.34490379 2.01552305 -23.26171875 -0.7421875 C-16.19168394 -2.60658187 -6.81663106 -2.85561571 0 0 Z " fill="#A794D7" transform="translate(304.625,366.4375)"/>
<path d="M0 0 C6.27197327 2.78073815 9.91781289 8.2736372 12.75 14.32421875 C13.375 17.38671875 13.375 17.38671875 13.375 26.38671875 C0.505 26.38671875 -12.365 26.38671875 -25.625 26.38671875 C-24.16412999 34.14728726 -24.16412999 34.14728726 -19.625 40.51171875 C-13.82007349 42.20482232 -8.91734773 43.36068039 -3.25 40.69921875 C-0.32248609 39.02552056 1.67223943 37.36654975 3.375 34.38671875 C9.125 35.26171875 9.125 35.26171875 11.375 36.38671875 C10.1254642 42.21788582 7.19650006 45.17882693 2.375 48.38671875 C-4.07131115 51.67153469 -11.60366476 51.06397353 -18.625 50.38671875 C-24.20426493 48.57195785 -28.63170151 45.48641247 -31.625 40.38671875 C-35.55722924 32.05642126 -37.53078274 24.18317492 -34.58984375 15.23828125 C-28.12460934 0.65098355 -14.94940554 -3.49264385 0 0 Z " fill="#A794D7" transform="translate(451.625,365.61328125)"/>
<path d="M0 0 C4.92874292 3.06822407 7.73154398 7.21308796 10.3125 12.375 C10.8075 18.81 10.8075 18.81 11.3125 25.375 C-1.5575 25.375 -14.4275 25.375 -27.6875 25.375 C-25.37296637 35.13807053 -25.37296637 35.13807053 -18.6875 40.375 C-13.82428184 41.8880012 -9.95245709 41.83689189 -5.3125 39.6875 C-2.78834018 38.27476084 -1.80339458 37.56143911 -0.25 35.0625 C0.265625 34.505625 0.78125 33.94875 1.3125 33.375 C4.38253152 33.33634852 7.30368277 33.79468305 10.3125 34.375 C8.85339106 39.19005951 6.11734877 43.11811119 2.3125 46.375 C-2.67301041 48.97982318 -6.9084418 49.92745331 -12.5625 49.875 C-13.61195801 49.86859497 -13.61195801 49.86859497 -14.68261719 49.86206055 C-22.20516726 49.61531951 -26.90314666 47.23262579 -32.0625 41.9375 C-37.67821235 33.08195361 -38.02518774 24.64418662 -36.6875 14.375 C-34.57372448 7.46999997 -30.06546656 2.75158217 -23.734375 -0.625 C-16.45190276 -3.01514474 -7.08161423 -3.17127317 0 0 Z " fill="#A894D7" transform="translate(638.6875,366.625)"/>
<path d="M0 0 C3.7943743 1.99470612 5.91274428 5.47465683 7.25 9.4375 C7.851741 14.5381661 7.90434486 19.62180427 7.9375 24.75 C7.97577066 27.47544064 8.02481385 30.20050031 8.07421875 32.92578125 C8.09101685 34.72849487 8.09101685 34.72849487 8.1081543 36.56762695 C8.05422862 39.38138597 8.05422862 39.38138597 9.25 41.4375 C11.27463255 42.08963292 11.27463255 42.08963292 13.25 42.4375 C13.25 44.7475 13.25 47.0575 13.25 49.4375 C7.15932974 49.85754622 4.14183119 49.4941405 -0.75 45.4375 C-1.08 44.7775 -1.41 44.1175 -1.75 43.4375 C-2.86375 44.365625 -2.86375 44.365625 -4 45.3125 C-10.69736555 50.48773702 -17.57153037 50.30963278 -25.75 49.4375 C-29.45195174 47.87946118 -31.11948828 45.5265657 -33.125 42.0625 C-34.2677962 37.26275595 -34.41279732 33.81832775 -32.25 29.3125 C-26.28351459 22.45104178 -20.02982061 20.75118425 -11.29785156 19.42504883 C-7.79684894 18.88898404 -5.75043412 18.43778942 -2.75 16.4375 C-2.9458398 11.59944753 -2.9458398 11.59944753 -5.48828125 7.73828125 C-9.408571 5.48360683 -13.37114069 5.66517692 -17.75 6.4375 C-21.09625024 8.96426039 -22.42977847 10.47683542 -23.75 14.4375 C-26.39 14.1075 -29.03 13.7775 -31.75 13.4375 C-32.75 10.4375 -32.75 10.4375 -31.125 7 C-25.01978935 -2.99226518 -10.33793044 -4.59027651 0 0 Z " fill="#A794D6" transform="translate(358.75,366.5625)"/>
<path d="M0 0 C3.3 0 6.6 0 10 0 C10 20.79 10 41.58 10 63 C18.25 63 26.5 63 35 63 C35 65.97 35 68.94 35 72 C23.45 72 11.9 72 0 72 C0 48.24 0 24.48 0 0 Z " fill="#A693D5" transform="translate(480,344)"/>
<path d="M0 0 C3.63 0 7.26 0 11 0 C11.38857178 1.04978027 11.77714355 2.09956055 12.17749023 3.18115234 C13.61694038 7.06910868 15.05787695 10.95651269 16.49926758 14.84375 C17.1233727 16.52751839 17.74707246 18.21143709 18.37036133 19.89550781 C19.26537722 22.31354598 20.16184073 24.73104311 21.05859375 27.1484375 C21.3377916 27.9036972 21.61698944 28.65895691 21.90464783 29.43710327 C23.31608755 33.27629052 23.31608755 33.27629052 25 37 C25.38857178 35.95021973 25.77714355 34.90043945 26.17749023 33.81884766 C27.61694038 29.93089132 29.05787695 26.04348731 30.49926758 22.15625 C31.1233727 20.47248161 31.74707246 18.78856291 32.37036133 17.10449219 C33.26537722 14.68645402 34.16184073 12.26895689 35.05859375 9.8515625 C35.3377916 9.0963028 35.61698944 8.34104309 35.90464783 7.56289673 C37.88612829 2.22774341 37.88612829 2.22774341 39 0 C42.3 0 45.6 0 49 0 C48.29091294 4.72569588 46.56575341 8.87586488 44.76171875 13.265625 C44.43967972 14.05845886 44.11764069 14.85129272 43.7858429 15.66815186 C43.10449237 17.34324874 42.42102938 19.01748773 41.7355957 20.69091797 C40.69744636 23.22571448 39.66552031 25.76297003 38.63476562 28.30078125 C37.96911596 29.93504494 37.30311146 31.56916416 36.63671875 33.203125 C36.33239426 33.95031799 36.02806976 34.69751099 35.71452332 35.46734619 C33.57338664 40.69029708 31.31114807 45.8499689 29 51 C26.03 51 23.06 51 20 51 C19.71390869 50.26177002 19.42781738 49.52354004 19.13305664 48.76293945 C17.7799724 45.27798441 16.42277948 41.79465139 15.0625 38.3125 C14.81656097 37.68273254 14.57062195 37.05296509 14.31723022 36.40411377 C10.61003093 26.92819926 6.75080279 17.534785 2.64282227 8.22387695 C2.29276123 7.42554443 1.9427002 6.62721191 1.58203125 5.8046875 C1.12147339 4.76803955 1.12147339 4.76803955 0.65161133 3.71044922 C0 2 0 2 0 0 Z " fill="#A693D4" transform="translate(546,365)"/>
<path d="M0 0 C2.97 0 5.94 0 9 0 C9 5.61 9 11.22 9 17 C12.63 17 16.26 17 20 17 C20 19.31 20 21.62 20 24 C16.37 24 12.74 24 9 24 C9.09344448 28.52104123 9.1995163 33.04154113 9.31738281 37.56201172 C9.35570301 39.10034021 9.39055056 40.63875925 9.421875 42.17724609 C9.46746059 44.38672276 9.5254634 46.59557448 9.5859375 48.8046875 C9.59748871 49.49432587 9.60903992 50.18396423 9.62094116 50.89450073 C9.64951022 54.8920154 9.64951022 54.8920154 12 58 C14.65537372 58.56520003 17.29144713 58.73788198 20 59 C20 61.64 20 64.28 20 67 C8.10228354 67.57159848 8.10228354 67.57159848 3 64 C-1.05276334 59.52798528 -1.13993662 55.27458662 -1.09765625 49.48828125 C-1.0962413 48.76005661 -1.09482635 48.03183197 -1.09336853 47.28153992 C-1.08777659 44.95848461 -1.07522562 42.63552612 -1.0625 40.3125 C-1.05748396 38.73632952 -1.05292123 37.16015752 -1.04882812 35.58398438 C-1.0378098 31.72261902 -1.02055074 27.86132592 -1 24 C-4.3 24 -7.6 24 -11 24 C-11 21.36 -11 18.72 -11 16 C-9.72125 15.9175 -8.4425 15.835 -7.125 15.75 C-4.95365445 15.69632215 -4.95365445 15.69632215 -3 15 C-0.81215913 11.97068187 -0.63621351 8.90698915 -0.375 5.25 C-0.30023438 4.26515625 -0.22546875 3.2803125 -0.1484375 2.265625 C-0.09945313 1.51796875 -0.05046875 0.7703125 0 0 Z " fill="#A793D6" transform="translate(388,349)"/>
<path d="M0 0 C0 2.97 0 5.94 0 9 C-0.67546875 9.15855469 -1.3509375 9.31710937 -2.046875 9.48046875 C-7.84135645 10.97103282 -7.84135645 10.97103282 -12.5625 14.5 C-15.01950271 18.77304819 -15.17740411 22.20914381 -15.31640625 27.07421875 C-15.33718735 27.7580513 -15.35796844 28.44188385 -15.37937927 29.1464386 C-15.44466154 31.3266921 -15.50366017 33.50706405 -15.5625 35.6875 C-15.60570553 37.16732986 -15.64932047 38.64714783 -15.69335938 40.12695312 C-15.80032083 43.75117622 -15.90164823 47.37553189 -16 51 C-18.97 51 -21.94 51 -25 51 C-25 34.5 -25 18 -25 1 C-22.03 1 -19.06 1 -16 1 C-15.67 2.98 -15.34 4.96 -15 7 C-14.52949219 6.57847656 -14.05898437 6.15695312 -13.57421875 5.72265625 C-12.95160156 5.17480469 -12.32898438 4.62695312 -11.6875 4.0625 C-11.07261719 3.51722656 -10.45773438 2.97195313 -9.82421875 2.41015625 C-6.64423359 -0.04803356 -3.87457537 -0.10471825 0 0 Z " fill="#A895D8" transform="translate(261,365)"/>
<path d="M0 0 C3.3 0 6.6 0 10 0 C10 16.83 10 33.66 10 51 C6.7 51 3.4 51 0 51 C0 34.17 0 17.34 0 0 Z " fill="#A592D3" transform="translate(526,365)"/>
<path d="M0 0 C3.37390497 1.603567 5.30587964 3.95881946 7.375 7.0625 C8 9 8 9 8 13 C-1.57 13 -11.14 13 -21 13 C-19.87068424 7.35342122 -19.87068424 7.35342122 -17.0625 4.25 C-16.53785156 3.65703125 -16.01320313 3.0640625 -15.47265625 2.453125 C-11.45473968 -1.51150355 -5.23544247 -0.61513032 0 0 Z " fill="#4F5264" transform="translate(298,372)"/>
<path d="M0 0 C2.78851097 2.22669795 4.98953905 4.60858667 6.08984375 8.01953125 C6.08984375 9.33953125 6.08984375 10.65953125 6.08984375 12.01953125 C-3.48015625 12.01953125 -13.05015625 12.01953125 -22.91015625 12.01953125 C-21.83076389 6.62256943 -20.67780784 4.87281129 -16.91015625 1.01953125 C-12.28014012 -1.8907646 -4.93690723 -2.53407712 0 0 Z " fill="#545669" transform="translate(448.91015625,372.98046875)"/>
<path d="M0 0 C3.31347753 1.64040012 5.32444183 3.98666275 7.375 7.0625 C8 9 8 9 8 13 C-1.57 13 -11.14 13 -21 13 C-17.94063927 3.82191781 -17.94063927 3.82191781 -13.203125 0.88671875 C-8.94078053 -0.82879933 -4.49625515 -0.64418127 0 0 Z " fill="#595B6D" transform="translate(632,372)"/>
<path d="M0 0 C-0.1638736 6.7039198 -1.09098811 10.31931425 -6 15 C-9.08007326 17.3366073 -12.32674352 17.42494795 -16.09375 17.3125 C-18 17 -18 17 -20.5 15.375 C-22.46942769 12.25673949 -22.67927401 10.62279473 -22 7 C-18.4165312 3.4955783 -15.29828321 2.26383659 -10.4375 1.25 C-9.32246094 1.00765625 -8.20742188 0.7653125 -7.05859375 0.515625 C-4 0 -4 0 0 0 Z " fill="#4F5163" transform="translate(357,392)"/>
<path d="M0 0 C2.4375 1.625 2.4375 1.625 4 4 C3.9375 7.125 3.9375 7.125 3 10 C-0.47042703 12.31361802 -1.91834173 12.51020728 -6 12 C-8.35210784 9.88310295 -8.91810953 8.55958485 -9.375 5.4375 C-9 3 -9 3 -7.875 1.1875 C-5.08666183 -0.57844751 -3.23271032 -0.46181576 0 0 Z " fill="#A592D4" transform="translate(534,342)"/>
</svg>
